<?xml version="1.0" encoding="utf-8"?>
<!-- Generator: Adobe Illustrator 16.0.1, SVG Export Plug-In . SVG Version: 6.00 Build 0)  -->
<!DOCTYPE svg PUBLIC "-//W3C//DTD SVG 1.1//EN" "http://www.w3.org/Graphics/SVG/1.1/DTD/svg11.dtd">
<svg version="1.1" id="Layer_1" xmlns="http://www.w3.org/2000/svg" xmlns:xlink="http://www.w3.org/1999/xlink" x="0px" y="0px"
	 width="460px" height="426.777px" viewBox="0 0 460 426.777" enable-background="new 0 0 460 426.777" xml:space="preserve">
<path fill="#DA0E19" d="M458.944,383.152V131.327c-72.873,27.557-91.96,39.851-98.899,44.938
	c-6.94,5.088-26.026,17.381-28.629,19.078c-2.603,1.695-6.94,4.663-10.411,5.511s-7.807,3.815-9.542,5.935
	c-1.736,2.121-6.941,7.208-6.941,7.208l-5.205,5.087c0,0-1.736,1.272-5.205-0.424c-3.47-1.695-10.015,0.472-11.277,2.544
	c-2.921,4.793-14.799,14.462-17.352,16.958c-3.47,3.392-8.675,8.055-14.748,9.326c-6.073,1.272-10.409,2.544-12.146,3.816
	c-1.735,1.271-5.205,1.271-10.41,2.543s-11.278,4.24-13.881,5.936c-2.604,1.695-13.88,4.24-22.556,5.936
	c-8.677,1.695-17.351,2.968-20.821,5.088c-3.471,2.119-14.749,7.631-17.352,9.326s-9.544,4.239-10.411,5.936
	c-0.866,1.695-5.204,4.664-13.88,2.968s-13.014-4.663-17.352-1.272c-4.337,3.393-12.146,5.936-14.748,8.055
	c-2.603,2.121-8.674,5.936-12.145,5.936s-10.412,1.695-12.146,3.393c-1.735,1.695-13.88,6.783-14.748,8.055
	s-6.073,4.663-7.808,5.936c-1.735,1.271-2.604,3.814-8.676,5.935c-6.072,2.12-13.447,4.663-13.447,4.663v54.107L458.944,383.152z"/>
<path fill="#55C1D9" d="M458.944,151.253v231.899l-430.735,0.689v-54.107c0,0,7.375-2.543,13.447-4.663
	c6.071-2.12,6.94-4.663,8.676-5.935c1.734-1.272,6.939-4.664,7.808-5.936s13.013-6.359,14.748-8.055
	c1.734-1.697,8.676-3.393,12.146-3.393s9.542-3.814,12.145-5.936c2.603-2.119,10.411-4.662,14.748-8.055
	c4.338-3.391,8.676-0.424,17.352,1.272s13.014-1.272,13.88-2.968c0.867-1.696,7.809-4.24,10.411-5.936s13.881-7.207,17.352-9.326
	c3.471-2.12,12.145-3.393,20.821-5.088c8.676-1.695,19.952-4.24,22.556-5.936c2.603-1.695,8.676-4.664,13.881-5.936
	s8.675-1.271,10.41-2.543c1.736-1.272,6.072-2.544,12.146-3.816c6.073-1.271,10.979-6.012,14.748-9.326
	c4.338-3.815,7.809-6.359,15.616-10.599c7.809-4.239,4.338-9.327,10.411-7.207s6.073,4.663,11.278,0.848s5.205-9.327,13.013-11.446
	c7.809-2.119,19.953-10.174,25.159-13.566c5.205-3.393,19.984-10.19,26.026-13.143C376.528,178.386,412.096,160.156,458.944,151.253
	z"/>
<path fill="#FBB810" d="M458.944,169.059v214.094l-430.735,0.689v-51.14c3.038-1.271,14.316-5.935,19.521-8.479
	s12.146-8.056,12.146-8.056l13.013-7.207l5.205-2.543c0,0,3.47-1.696,6.94-1.696s11.278-3.815,13.881-5.087
	c2.603-1.272,8.675-5.512,12.146-5.936s-2.602-1.695,9.544-0.424c12.145,1.271,19.954-0.424,23.423-2.967
	c3.47-2.545,8.676-6.783,13.014-7.632c4.337-0.849,14.749-8.055,20.821-8.903c6.071-0.848,15.614-1.695,21.688-1.695
	s12.146-5.088,13.881-6.359s16.482-2.967,19.953-3.392c3.471-0.424,10.41-5.511,16.483-6.358c6.073-0.85,10.412-5.512,13.882-7.632
	c3.469-2.12,14.747-11.871,17.35-13.566c2.604-1.696,2.602-4.663,6.94-4.663s13.013,2.119,13.013,2.119s1.736-6.783,6.073-8.479
	c4.338-1.696,12.146-5.936,17.351-6.783s14.749-6.783,19.954-10.176c5.206-3.391,24.291-13.141,32.099-14.838
	c7.808-1.695,39.039-13.143,46.848-15.262C431.184,174.57,451.136,170.33,458.944,169.059z"/>
<path fill="#8DA6B4" d="M458.944,181.354v201.799l-430.735,0.689v-51.14c4.772-1.695,14.316-5.511,19.521-7.631
	s12.146-8.478,14.748-9.327c2.603-0.848,3.471-2.119,6.073-3.814c2.603-1.696,10.41-5.936,10.41-5.936l12.146-0.848
	c0,0,4.338-4.24,8.676-5.088c4.337-0.848,9.542-5.088,12.145-5.088c2.604,0,2.602-0.848,9.543,0.848
	c6.941,1.696,13.013,2.544,18.219,1.272c5.205-1.272,8.677-3.392,12.146-4.239c3.469-0.848,6.939-5.088,12.145-5.936
	s10.412-5.936,21.689-5.936s23.422-1.695,26.893-3.814c3.471-2.12,8.675-4.24,13.014-5.088c4.338-0.848,11.278-1.696,13.881-2.969
	c2.603-1.271,8.676-3.391,13.013-3.391c4.338,0,4.338-6.783,10.411-8.902c6.073-2.12,14.748-8.056,18.218-11.447
	c3.471-3.391,10.411-7.207,13.014-5.512c2.603,1.696,4.339,0.849,8.676-0.848c4.337-1.695,10.409-9.75,13.88-11.022
	c3.471-1.271,6.939-3.392,10.41-2.968s19.088-7.207,25.16-10.599c6.071-3.392,33.833-16.958,47.714-19.925
	C413.833,191.527,458.944,181.354,458.944,181.354z"/>
<path fill="#DADADA" d="M458.944,246.641v136.512l-430.735,0.689V339.91c0,0,14.314-4.664,17.785-5.088s7.81-5.088,14.749-6.783
	c6.94-1.695,12.146-5.088,12.146-5.088l6.94-2.967h11.278c0,0,6.939-4.664,12.145-5.088c5.206-0.424,7.809-3.815,13.014-2.543
	c5.205,1.271,17.352,4.24,25.159,2.119c7.809-2.119,16.482-3.815,19.953-4.239c3.471-0.425,6.072-4.663,14.748-4.663
	s18.22-0.425,25.159-0.849c6.94-0.423,6.941-4.663,18.219-4.663s12.144-0.424,16.482-0.848s7.808-2.12,11.278-2.12
	s6.94-2.12,10.411-3.815s6.939-5.936,12.145-8.479c5.205-2.544,15.616-5.936,18.219-5.936s9.544,0,9.544,0
	s10.409-3.815,16.482-6.359c6.073-2.543,12.146-4.664,12.146-4.664s15.615-2.543,22.556-5.511
	c6.939-2.968,39.907-9.327,47.715-9.751C404.291,252.152,444.195,246.641,458.944,246.641z"/>
<g>
	<g>
		<path fill="#010202" d="M0.637,58.804l1.335-0.195v-9.045l-1.32-0.195v-0.48h4.095c2.22,0,3.45,0.735,3.45,2.55
			c0,1.08-0.54,2.1-1.935,2.37v0.06c1.77,0.27,2.49,1.11,2.49,2.64c0,1.695-1.29,2.775-3.555,2.775h-4.56V58.804z M4.821,53.6
			c1.365,0,2.265-0.525,2.265-1.98c0-1.74-0.915-2.085-2.43-2.085H3.021V53.6H4.821z M5.031,58.639c1.68,0,2.61-0.645,2.61-2.205
			c0-1.635-0.96-2.25-2.61-2.25h-2.01v4.455H5.031z"/>
		<path fill="#010202" d="M9.292,58.879l1.17-0.18v-6.285L9.216,52.25v-0.45l2.1-0.255l0.12,0.06v7.095l1.185,0.18v0.405h-3.33
			V58.879z M10.236,49.354c0-0.36,0.285-0.645,0.645-0.645c0.375,0,0.645,0.285,0.645,0.645c0,0.33-0.27,0.63-0.645,0.63
			C10.521,49.984,10.236,49.685,10.236,49.354z"/>
		<path fill="#010202" d="M12.876,58.879l1.185-0.18v-9.705l-1.29-0.165v-0.45l2.145-0.255l0.12,0.075v10.5l1.185,0.18v0.405h-3.345
			V58.879z"/>
		<path fill="#010202" d="M16.477,58.879l1.185-0.18v-9.705l-1.29-0.165v-0.45l2.145-0.255l0.12,0.075v10.5l1.185,0.18v0.405h-3.345
			V58.879z"/>
		<path fill="#010202" d="M20.092,58.879l1.17-0.18v-6.285l-1.245-0.165v-0.45l2.1-0.255l0.12,0.06v7.095l1.185,0.18v0.405h-3.33
			V58.879z M21.037,49.354c0-0.36,0.285-0.645,0.645-0.645c0.375,0,0.645,0.285,0.645,0.645c0,0.33-0.27,0.63-0.645,0.63
			C21.322,49.984,21.037,49.685,21.037,49.354z"/>
		<path fill="#010202" d="M23.886,55.504c0-2.49,1.635-4.02,3.555-4.02c1.995,0,3.57,1.47,3.57,3.945c0,2.49-1.65,4.02-3.555,4.02
			C25.446,59.449,23.886,57.994,23.886,55.504z M29.991,55.52c0-2.445-1.26-3.405-2.565-3.405c-1.305,0-2.52,0.93-2.52,3.315
			c0,2.415,1.245,3.39,2.565,3.39C28.761,58.819,29.991,57.904,29.991,55.52z"/>
		<path fill="#010202" d="M31.461,58.879l1.17-0.18v-6.285l-1.17-0.165v-0.45l1.965-0.255l0.12,0.06v0.75h0.06
			c0.81-0.48,1.77-0.87,2.76-0.87c1.41,0,2.145,0.585,2.145,2.025v5.19l1.17,0.18v0.405h-3.3v-0.405l1.17-0.18v-4.92
			c0-1.095-0.54-1.515-1.695-1.515c-0.795,0-1.56,0.27-2.265,0.585v5.85l1.17,0.18v0.405h-3.3V58.879z"/>
		<path fill="#010202" d="M43.716,57.634v-5.34h-1.125V51.89l1.185-0.27l0.18-1.815h0.72v1.815h2.1v0.675h-2.1v5.145
			c0,0.93,0.33,1.29,1.245,1.29c0.36,0,0.705-0.06,1.02-0.15v0.435c-0.315,0.195-0.87,0.39-1.41,0.39
			C44.376,59.404,43.716,58.954,43.716,57.634z"/>
		<path fill="#010202" d="M47.361,55.504c0-2.49,1.635-4.02,3.555-4.02c1.995,0,3.57,1.47,3.57,3.945c0,2.49-1.65,4.02-3.555,4.02
			C48.921,59.449,47.361,57.994,47.361,55.504z M53.466,55.52c0-2.445-1.26-3.405-2.565-3.405c-1.305,0-2.52,0.93-2.52,3.315
			c0,2.415,1.245,3.39,2.565,3.39C52.236,58.819,53.466,57.904,53.466,55.52z"/>
		<path fill="#010202" d="M55.161,55.415c0-2.475,1.485-3.93,3.375-3.93c2.07,0,3.045,1.44,3.045,3.84h-5.415
			c0.015,2.175,0.855,3.39,2.805,3.39c1.125,0,1.755-0.24,2.295-0.465v0.51c-0.48,0.285-1.245,0.675-2.475,0.675
			C56.136,59.434,55.161,57.709,55.161,55.415z M60.501,54.665c-0.015-1.74-0.72-2.565-2.025-2.565c-1.365,0-2.19,0.93-2.295,2.655
			L60.501,54.665z"/>
	</g>
</g>
<rect x="63.581" y="71.146" fill="#00588A" width="10.854" height="10.853"/>
<g>
	<path fill="#010202" d="M0.592,81.053l1.32-0.195v-9.045l-1.32-0.195v-0.48h3.78v0.48l-1.41,0.195v9.045l1.41,0.195v0.48h-3.78
		V81.053z M3.696,76.568v-0.27l3.795-4.485l-1.065-0.195v-0.48h2.985v0.48l-0.99,0.195l-3.765,4.35l3.765,4.695l1.155,0.195v0.48
		h-1.92L3.696,76.568z"/>
	<path fill="#010202" d="M9.756,77.664c0-2.475,1.485-3.93,3.375-3.93c2.07,0,3.045,1.44,3.045,3.84h-5.415
		c0.015,2.175,0.855,3.39,2.805,3.39c1.125,0,1.755-0.24,2.295-0.465v0.51c-0.48,0.285-1.245,0.675-2.475,0.675
		C10.731,81.683,9.756,79.958,9.756,77.664z M15.096,76.914c-0.015-1.74-0.72-2.565-2.025-2.565c-1.365,0-2.19,0.93-2.295,2.655
		L15.096,76.914z"/>
	<path fill="#010202" d="M17.332,84.263v-0.585c0.315,0.075,0.51,0.12,0.765,0.12c0.885,0,1.26-0.435,1.605-1.29l0.48-1.2
		l-2.805-6.84l-0.84-0.165v-0.435h2.97v0.435l-1.08,0.15l2.235,5.655h0.045l2.055-5.64l-1.05-0.165v-0.435h2.67v0.435l-0.855,0.165
		l-3.165,8.28c-0.405,1.095-0.9,1.74-2.025,1.74C17.977,84.488,17.571,84.383,17.332,84.263z"/>
</g>
<g>
	<g>
		<path fill="#010202" d="M80.457,100.487l1.335-0.21v-9.045l-1.335-0.195v-0.48h2.76l5.16,8.55h0.045v-7.86l-1.365-0.21v-0.48
			h3.345v0.465l-1.2,0.21v9.72h-0.87l-5.715-9.495h-0.045v8.82l1.41,0.21v0.465h-3.524V100.487z"/>
		<path fill="#010202" d="M91.706,98.912v-4.905l-1.17-0.165v-0.45l2.01-0.18l0.12,0.075v5.415c0,1.11,0.405,1.635,1.635,1.635
			c0.96,0,1.635-0.285,2.28-0.6v-5.73l-1.14-0.165v-0.45l1.98-0.18l0.12,0.075v6.944l1.17,0.18v0.405l-1.95,0.255l-0.12-0.075
			v-0.825h-0.075c-0.75,0.555-1.65,0.915-2.7,0.915C92.366,101.086,91.706,100.277,91.706,98.912z"/>
		<path fill="#010202" d="M99.236,97.172c0-2.88,1.77-4.02,3.84-4.02c0.75,0,1.44,0.12,2.01,0.315v1.83H104.5l-0.21-1.32
			c-0.345-0.135-0.675-0.195-1.335-0.195c-1.59,0-2.7,1.005-2.7,3.27c0,2.34,1.05,3.33,2.88,3.33c1.02,0,1.71-0.255,2.115-0.465
			v0.54c-0.495,0.33-1.215,0.645-2.37,0.645C100.511,101.102,99.236,99.572,99.236,97.172z"/>
		<path fill="#010202" d="M105.641,100.547l1.185-0.18v-9.705l-1.29-0.165v-0.45l2.145-0.255l0.12,0.075v10.5l1.185,0.18v0.405
			h-3.345V100.547z"/>
		<path fill="#010202" d="M109.376,97.082c0-2.475,1.485-3.93,3.375-3.93c2.07,0,3.045,1.44,3.045,3.84h-5.415
			c0.015,2.175,0.855,3.39,2.805,3.39c1.125,0,1.755-0.24,2.295-0.465v0.51c-0.48,0.285-1.245,0.675-2.475,0.675
			C110.351,101.102,109.376,99.377,109.376,97.082z M114.716,96.332c-0.015-1.74-0.72-2.565-2.025-2.565
			c-1.365,0-2.19,0.93-2.295,2.655L114.716,96.332z"/>
		<path fill="#010202" d="M116.426,99.047c0-1.305,0.93-1.845,2.34-2.07l2.085-0.33v-0.99c0-1.275-0.3-1.725-1.725-1.725
			c-0.735,0-1.515,0.12-2.115,0.27v-0.525c0.585-0.255,1.56-0.525,2.505-0.525c1.59,0,2.31,0.705,2.31,2.235v4.44
			c0,0.555,0.285,0.675,0.75,0.675c0.09,0,0.39-0.015,0.435-0.03v0.405c-0.165,0.09-0.57,0.195-0.99,0.195
			c-0.615,0-0.99-0.285-1.065-0.855h-0.06c-0.48,0.51-1.185,0.9-2.16,0.9C117.341,101.117,116.426,100.322,116.426,99.047z
			 M120.851,99.677v-2.34l-1.785,0.135c-1.215,0.09-1.635,0.615-1.635,1.47c0,0.945,0.54,1.485,1.635,1.485
			C119.786,100.427,120.476,100.097,120.851,99.677z"/>
		<path fill="#010202" d="M123.116,100.547l1.17-0.18v-6.285l-1.17-0.165v-0.45l1.965-0.255l0.12,0.06v1.005h0.06
			c0.495-0.57,1.23-1.095,2.13-1.095c0.12,0,0.36,0.03,0.435,0.06v0.855c-0.165-0.03-0.42-0.045-0.555-0.045
			c-0.81,0-1.44,0.27-2.025,0.765v5.55l1.275,0.18v0.405h-3.405V100.547z"/>
	</g>
</g>
<g>
	<g>
		<path fill="#010202" d="M165.447,76.413c0-3.63,2.175-5.355,4.59-5.355c2.58,0,4.545,1.875,4.545,5.325
			c0,3.645-2.175,5.4-4.575,5.4C167.412,81.783,165.447,79.878,165.447,76.413z M173.472,76.533c0-3.225-1.305-4.845-3.48-4.845
			c-2.19,0-3.435,1.785-3.435,4.62c0,3.03,1.155,4.83,3.465,4.83C172.197,81.138,173.472,79.353,173.472,76.533z"/>
		<path fill="#010202" d="M175.212,81.213l1.17-0.18v-6.285l-1.245-0.165v-0.45l2.1-0.255l0.12,0.06v7.095l1.185,0.18v0.405h-3.33
			V81.213z M176.157,71.688c0-0.36,0.285-0.645,0.645-0.645c0.375,0,0.645,0.285,0.645,0.645c0,0.33-0.27,0.63-0.645,0.63
			C176.442,72.318,176.157,72.018,176.157,71.688z"/>
		<path fill="#010202" d="M178.797,81.213l1.185-0.18v-9.705l-1.29-0.165v-0.45l2.145-0.255l0.12,0.075v10.5l1.185,0.18v0.405
			h-3.345V81.213z"/>
	</g>
	<rect x="148.392" y="70.961" fill="#DADADA" width="10.854" height="10.852"/>
</g>
<g>
	<g>
		<path fill="#010202" d="M242.78,76.006c0-3.915,2.235-5.445,4.965-5.445c1.44,0,2.34,0.195,2.955,0.435l0.12,2.34h-0.54
			l-0.45-1.695c-0.495-0.255-1.17-0.45-2.189-0.45c-2.476,0-3.75,1.71-3.75,4.62c0,3.135,1.215,4.86,3.854,4.86
			c0.81,0,1.44-0.165,1.979-0.345v-3.075l-1.424-0.195v-0.465h3.645v0.465l-1.155,0.195v3.585c-0.81,0.285-1.771,0.48-3,0.48
			C244.641,81.316,242.78,79.666,242.78,76.006z"/>
		<path fill="#010202" d="M252.365,79.231c0-1.305,0.93-1.845,2.34-2.07l2.085-0.33v-0.99c0-1.275-0.3-1.725-1.725-1.725
			c-0.735,0-1.515,0.12-2.115,0.27v-0.525c0.585-0.255,1.56-0.525,2.505-0.525c1.59,0,2.311,0.705,2.311,2.235v4.44
			c0,0.555,0.285,0.675,0.75,0.675c0.09,0,0.39-0.015,0.435-0.03v0.405c-0.165,0.09-0.57,0.195-0.99,0.195
			c-0.614,0-0.989-0.285-1.065-0.855h-0.06c-0.479,0.51-1.185,0.9-2.159,0.9C253.28,81.301,252.365,80.506,252.365,79.231z
			 M256.79,79.861v-2.34l-1.784,0.135c-1.215,0.09-1.636,0.615-1.636,1.47c0,0.945,0.54,1.485,1.636,1.485
			C255.725,80.611,256.415,80.281,256.79,79.861z"/>
		<path fill="#010202" d="M259.445,80.881l-0.12-1.875h0.556l0.299,1.29c0.375,0.195,0.931,0.39,1.666,0.39
			c1.185,0,1.844-0.495,1.844-1.38c0-0.87-0.404-1.185-1.514-1.515l-0.916-0.285c-1.17-0.345-1.83-0.96-1.83-2.055
			c0-1.17,0.9-2.1,2.596-2.1c0.915,0,1.619,0.135,2.13,0.315l0.03,1.755h-0.525l-0.285-1.14c-0.3-0.18-0.734-0.315-1.439-0.315
			c-0.975,0-1.635,0.39-1.635,1.26c0,0.735,0.359,1.11,1.5,1.455l0.914,0.27c1.291,0.405,1.891,0.975,1.891,2.115
			c0,1.275-0.93,2.235-2.836,2.235C260.855,81.301,260.045,81.091,259.445,80.881z"/>
	</g>
	<rect x="225.726" y="70.479" fill="#8DA6B4" width="10.853" height="10.853"/>
	<rect x="63.582" y="90.48" fill="#FBB810" width="10.853" height="10.853"/>
</g>
<g>
	<g>
		<path fill="#010202" d="M80.635,76.673c0-3.915,2.16-5.445,4.89-5.445c1.365,0,2.235,0.21,2.85,0.435l0.09,2.385h-0.54
			l-0.45-1.755c-0.435-0.21-1.155-0.42-2.04-0.42c-2.49,0-3.69,1.695-3.69,4.605c0,3.135,1.155,4.845,3.78,4.845
			c0.9,0,1.53-0.21,2.025-0.45l0.45-1.86h0.555l-0.09,2.43c-0.72,0.3-1.62,0.54-3.045,0.54
			C82.435,81.983,80.635,80.318,80.635,76.673z"/>
		<path fill="#010202" d="M89.41,78.023c0-2.49,1.635-4.02,3.555-4.02c1.995,0,3.57,1.47,3.57,3.945c0,2.49-1.65,4.02-3.555,4.02
			C90.97,81.968,89.41,80.513,89.41,78.023z M95.515,78.038c0-2.445-1.26-3.405-2.565-3.405c-1.305,0-2.52,0.93-2.52,3.315
			c0,2.415,1.245,3.39,2.565,3.39C94.285,81.338,95.515,80.423,95.515,78.038z"/>
		<path fill="#010202" d="M97.15,79.898c0-1.305,0.93-1.845,2.34-2.07l2.085-0.33v-0.99c0-1.275-0.3-1.725-1.725-1.725
			c-0.735,0-1.515,0.12-2.115,0.27v-0.525c0.585-0.255,1.56-0.525,2.505-0.525c1.59,0,2.31,0.705,2.31,2.235v4.44
			c0,0.555,0.285,0.675,0.75,0.675c0.09,0,0.39-0.015,0.435-0.03v0.405c-0.165,0.09-0.57,0.195-0.99,0.195
			c-0.615,0-0.99-0.285-1.065-0.855h-0.06c-0.48,0.51-1.185,0.9-2.16,0.9C98.065,81.968,97.15,81.173,97.15,79.898z M101.575,80.528
			v-2.34l-1.785,0.135c-1.215,0.09-1.635,0.615-1.635,1.47c0,0.945,0.54,1.485,1.635,1.485
			C100.51,81.278,101.2,80.948,101.575,80.528z"/>
		<path fill="#010202" d="M103.855,81.398l1.185-0.18v-9.705l-1.29-0.165v-0.45l2.145-0.255l0.12,0.075v10.5l1.185,0.18v0.405
			h-3.345V81.398z"/>
	</g>
</g>
<rect x="149.06" y="89.146" fill="#55C1D9" width="10.854" height="10.853"/>
<g>
	<g>
		<path fill="#010202" d="M241.268,99.138l1.35-0.195v-9.045l-1.32-0.195v-0.48h4.154c2.506,0,3.48,1.035,3.48,2.76
			c0,1.455-0.885,2.295-2.25,2.61v0.06l2.52,4.29l1.096,0.21v0.465h-1.891l-2.744-4.785h-1.995v4.11l1.305,0.195v0.48h-3.704V99.138
			z M245.512,94.233c1.695,0,2.324-0.975,2.324-2.22c0-1.425-0.584-2.115-2.414-2.115h-1.755v4.335H245.512z"/>
		<path fill="#010202" d="M250.162,95.748c0-2.475,1.484-3.93,3.375-3.93c2.069,0,3.045,1.44,3.045,3.84h-5.416
			c0.016,2.175,0.855,3.39,2.806,3.39c1.125,0,1.755-0.24,2.295-0.465v0.51c-0.479,0.285-1.245,0.675-2.476,0.675
			C251.137,99.768,250.162,98.043,250.162,95.748z M255.502,94.998c-0.016-1.74-0.721-2.565-2.025-2.565
			c-1.365,0-2.189,0.93-2.295,2.655L255.502,94.998z"/>
		<path fill="#010202" d="M257.047,99.213l1.17-0.18v-6.285l-1.17-0.165v-0.45l1.965-0.255l0.119,0.06v0.75h0.061
			c0.811-0.48,1.77-0.87,2.76-0.87c1.41,0,2.145,0.585,2.145,2.025v5.19l1.17,0.18v0.405h-3.299v-0.405l1.17-0.18v-4.92
			c0-1.095-0.541-1.515-1.695-1.515c-0.795,0-1.561,0.27-2.266,0.585v5.85l1.17,0.18v0.405h-3.299V99.213z"/>
		<path fill="#010202" d="M265.701,95.748c0-2.475,1.485-3.93,3.375-3.93c2.07,0,3.045,1.44,3.045,3.84h-5.414
			c0.015,2.175,0.854,3.39,2.805,3.39c1.125,0,1.755-0.24,2.295-0.465v0.51c-0.48,0.285-1.245,0.675-2.475,0.675
			C266.677,99.768,265.701,98.043,265.701,95.748z M271.041,94.998c-0.015-1.74-0.719-2.565-2.024-2.565
			c-1.364,0-2.19,0.93-2.295,2.655L271.041,94.998z"/>
		<path fill="#010202" d="M273.097,92.553l-0.84-0.165v-0.435h2.819v0.435l-1.02,0.165l1.68,5.685h0.045l2.04-6.285h0.646
			l2.024,6.285h0.045l1.65-5.685l-1.005-0.165v-0.435h2.564v0.435l-0.84,0.165l-2.145,7.065h-0.735l-1.965-6.195h-0.03l-2.07,6.195
			h-0.734L273.097,92.553z"/>
		<path fill="#010202" d="M283.762,97.713c0-1.305,0.93-1.845,2.34-2.07l2.084-0.33v-0.99c0-1.275-0.299-1.725-1.725-1.725
			c-0.734,0-1.515,0.12-2.115,0.27v-0.525c0.586-0.255,1.561-0.525,2.506-0.525c1.59,0,2.31,0.705,2.31,2.235v4.44
			c0,0.555,0.285,0.675,0.75,0.675c0.09,0,0.39-0.015,0.435-0.03v0.405c-0.164,0.09-0.57,0.195-0.99,0.195
			c-0.614,0-0.989-0.285-1.064-0.855h-0.061c-0.479,0.51-1.184,0.9-2.159,0.9C284.676,99.783,283.762,98.988,283.762,97.713z
			 M288.186,98.343v-2.34l-1.784,0.135c-1.215,0.09-1.636,0.615-1.636,1.47c0,0.945,0.541,1.485,1.636,1.485
			C287.121,99.093,287.811,98.763,288.186,98.343z"/>
		<path fill="#010202" d="M291.187,99.153v-9.795l-1.215-0.18v-0.435l2.01-0.255l0.136,0.06v4.155h0.06
			c0.659-0.48,1.425-0.885,2.489-0.885c1.516,0,3.016,0.81,3.016,3.72c0,2.82-1.471,4.229-3.75,4.229
			C292.762,99.768,291.816,99.468,291.187,99.153z M296.662,95.733c0-2.385-0.99-3.135-2.431-3.135c-0.84,0-1.56,0.315-2.085,0.615
			v5.4c0.405,0.27,0.93,0.54,1.904,0.54C295.611,99.153,296.662,98.253,296.662,95.733z"/>
		<path fill="#010202" d="M298.207,99.213l1.185-0.18v-9.705l-1.29-0.165v-0.45l2.145-0.255l0.121,0.075v10.5l1.184,0.18v0.405
			h-3.344V99.213z"/>
		<path fill="#010202" d="M301.941,95.748c0-2.475,1.484-3.93,3.375-3.93c2.07,0,3.045,1.44,3.045,3.84h-5.415
			c0.015,2.175,0.854,3.39,2.806,3.39c1.125,0,1.754-0.24,2.295-0.465v0.51c-0.48,0.285-1.246,0.675-2.476,0.675
			C302.916,99.768,301.941,98.043,301.941,95.748z M307.281,94.998c-0.016-1.74-0.721-2.565-2.025-2.565
			c-1.364,0-2.189,0.93-2.295,2.655L307.281,94.998z"/>
		<path fill="#010202" d="M309.217,99.363l-0.121-1.875h0.556l0.3,1.29c0.375,0.195,0.93,0.39,1.665,0.39
			c1.185,0,1.845-0.495,1.845-1.38c0-0.87-0.404-1.185-1.515-1.515l-0.915-0.285c-1.17-0.345-1.83-0.96-1.83-2.055
			c0-1.17,0.9-2.1,2.596-2.1c0.914,0,1.619,0.135,2.129,0.315l0.03,1.755h-0.524l-0.285-1.14c-0.301-0.18-0.735-0.315-1.44-0.315
			c-0.975,0-1.635,0.39-1.635,1.26c0,0.735,0.36,1.11,1.5,1.455l0.915,0.27c1.29,0.405,1.89,0.975,1.89,2.115
			c0,1.275-0.93,2.235-2.835,2.235C310.627,99.783,309.816,99.573,309.217,99.363z"/>
	</g>
	<rect x="224.392" y="88.961" fill="#DA0E19" width="10.854" height="10.852"/>
</g>
<g>
	<g>
		<path fill="#010202" d="M165.934,99.323l1.32-0.195v-9.045l-1.32-0.195v-0.48h3.734v0.48l-1.365,0.195v4.08h5.31v-4.08
			l-1.38-0.195v-0.48h3.75v0.48l-1.305,0.195v9.045l1.305,0.195v0.48h-3.75v-0.48l1.38-0.195v-4.365h-5.31v4.365l1.365,0.195v0.48
			h-3.734V99.323z"/>
		<path fill="#010202" d="M176.689,102.533v-0.585c0.315,0.075,0.51,0.12,0.765,0.12c0.885,0,1.26-0.435,1.605-1.29l0.48-1.2
			l-2.805-6.84l-0.84-0.165v-0.435h2.97v0.435l-1.08,0.15l2.235,5.655h0.045l2.055-5.64l-1.05-0.165v-0.435h2.67v0.435l-0.855,0.165
			l-3.165,8.28c-0.405,1.095-0.9,1.74-2.025,1.74C177.334,102.758,176.929,102.653,176.689,102.533z"/>
		<path fill="#010202" d="M183.904,96.128c0-2.835,1.53-4.125,3.75-4.125c0.795,0,1.305,0.18,1.77,0.345v-2.805l-1.32-0.18v-0.435
			l2.16-0.255l0.12,0.06v10.349l1.17,0.18v0.405l-1.95,0.255l-0.12-0.075v-0.825h-0.075c-0.54,0.525-1.26,0.93-2.31,0.93
			C185.583,99.953,183.904,99.068,183.904,96.128z M189.423,98.513v-5.31c-0.45-0.3-0.915-0.57-1.875-0.57
			c-1.545,0-2.64,0.84-2.64,3.36c0,2.355,0.96,3.195,2.475,3.195C188.194,99.188,188.898,98.843,189.423,98.513z"/>
		<path fill="#010202" d="M191.869,99.398l1.17-0.18v-6.285l-1.17-0.165v-0.45l1.965-0.255l0.12,0.06v1.005h0.06
			c0.495-0.57,1.23-1.095,2.13-1.095c0.12,0,0.36,0.03,0.435,0.06v0.855c-0.165-0.03-0.42-0.045-0.555-0.045
			c-0.81,0-1.44,0.27-2.025,0.765v5.55l1.275,0.18v0.405h-3.405V99.398z"/>
		<path fill="#010202" d="M196.864,96.023c0-2.49,1.635-4.02,3.555-4.02c1.995,0,3.57,1.47,3.57,3.945c0,2.49-1.65,4.02-3.555,4.02
			C198.424,99.968,196.864,98.513,196.864,96.023z M202.969,96.038c0-2.445-1.26-3.405-2.565-3.405c-1.305,0-2.52,0.93-2.52,3.315
			c0,2.415,1.245,3.39,2.565,3.39C201.739,99.338,202.969,98.423,202.969,96.038z"/>
	</g>
</g>
<line fill="none" stroke="#010202" stroke-width="0.5" stroke-miterlimit="10" x1="42.679" y1="71.033" x2="42.679" y2="80.588"/>
<g>
	<g>
		<g>
			<path fill="#010202" d="M1.267,335.752v-1.004c0.645,0.27,1.455,0.465,2.34,0.465c1.455,0,2.235-0.676,2.235-1.98
				c0-1.215-0.675-1.904-2.16-1.904H2.797v-1.11h0.645c1.32,0,2.085-0.765,2.085-1.8c0-1.23-0.735-1.635-2.04-1.635
				c-0.675,0-1.305,0.105-1.815,0.285v-0.975c0.63-0.301,1.365-0.466,2.235-0.466c1.77,0,3.015,0.841,3.015,2.476
				c0,1.274-0.735,2.234-2.16,2.52v0.15c1.545,0.164,2.55,0.854,2.55,2.504c0,1.86-1.305,3.09-3.375,3.09
				C2.827,336.367,1.882,336.068,1.267,335.752z"/>
		</g>
	</g>
</g>
<g>
	<g>
		<g>
			<path fill="#010202" d="M1.162,286.628v-0.42c0-4.215,1.92-5.58,4.125-5.58c0.84,0,1.41,0.165,1.845,0.405v0.975
				c-0.36-0.119-0.915-0.225-1.605-0.225c-1.56,0-2.7,0.645-2.925,3.795h0.15c0.54-0.45,1.14-0.855,2.175-0.855
				c1.725,0,2.73,1.17,2.73,3.135c0,2.025-1.02,3.525-3.105,3.525C2.377,291.383,1.162,289.853,1.162,286.628z M6.262,287.978
				c0-1.68-0.675-2.22-1.755-2.22c-0.855,0-1.365,0.255-1.89,0.645v0.42c0,2.131,0.525,3.496,1.92,3.496
				C5.782,290.318,6.262,289.598,6.262,287.978z"/>
		</g>
	</g>
</g>
<g>
	<g>
		<g>
			<path fill="#010202" d="M1.447,249.25v-0.975c0.375,0.12,1.095,0.285,1.83,0.285c1.635,0,2.76-0.66,2.865-3.795h-0.15
				c-0.54,0.465-1.14,0.855-2.175,0.855c-1.725,0-2.73-1.155-2.73-3.135c0-2.025,1.02-3.525,3.105-3.525
				c2.145,0,3.39,1.53,3.39,4.755v0.42c0,4.245-1.68,5.58-4.05,5.58C2.617,249.716,1.882,249.49,1.447,249.25z M6.127,243.941v-0.42
				c0-2.131-0.51-3.496-1.905-3.496c-1.215,0-1.74,0.721-1.74,2.355c0,1.665,0.675,2.221,1.755,2.221
				C5.092,244.602,5.602,244.331,6.127,243.941z"/>
		</g>
	</g>
</g>
<g>
	<g>
		<g>
			<path fill="#010202" d="M1.972,204.076h2.01c0,0-0.075-0.78-0.075-1.275v-6.705c0,0-0.45,0.18-1.14,0.27l-0.855,0.12v-0.81
				l2.775-1.125h0.63v8.25c0,0.495-0.09,1.275-0.09,1.275h2.01v0.96H1.972V204.076z"/>
			<path fill="#010202" d="M9.217,204.031l2.25-2.37c1.44-1.56,2.115-2.595,2.115-4.035c0-1.41-0.585-1.995-1.995-1.995
				c-0.78,0-1.515,0.165-2.145,0.405v-0.99c0.585-0.3,1.425-0.585,2.46-0.585c1.95,0,3.135,1.08,3.135,3.12
				c0,1.53-0.825,2.925-2.52,4.62l-0.27,0.27c-0.765,0.765-1.59,1.365-1.59,1.365v0.075h4.605v1.125H9.217V204.031z"/>
		</g>
	</g>
</g>
<g>
	<g>
		<g>
			<path fill="#010202" d="M1.972,160.743h2.01c0,0-0.075-0.78-0.075-1.275v-6.705c0,0-0.45,0.18-1.14,0.27l-0.855,0.12v-0.81
				l2.775-1.125h0.63v8.25c0,0.495-0.09,1.275-0.09,1.275h2.01v0.96H1.972V160.743z"/>
			<path fill="#010202" d="M9.382,161.208v-1.02c0.57,0.315,1.38,0.525,2.22,0.525c1.365,0,2.205-0.705,2.205-2.175
				c0-1.545-0.765-2.22-2.235-2.22c-0.585,0-1.035,0.105-1.44,0.24h-0.33l0.345-5.234h4.755v1.125h-3.75c0,0,0.045,0.45,0.015,0.854
				l-0.06,0.99c-0.045,0.675-0.255,1.26-0.255,1.26h0.15c0.36-0.165,0.735-0.27,1.17-0.27c1.965,0,3.135,1.14,3.135,3.18
				c0,1.995-1.275,3.405-3.48,3.405C10.687,161.868,9.937,161.583,9.382,161.208z"/>
		</g>
	</g>
</g>
<g>
	<g>
		<g>
			<path fill="#010202" d="M1.972,119.41h2.01c0,0-0.075-0.78-0.075-1.275v-6.705c0,0-0.45,0.18-1.14,0.27l-0.855,0.12v-0.81
				l2.775-1.125h0.63v8.25c0,0.495-0.09,1.275-0.09,1.275h2.01v0.96H1.972V119.41z"/>
			<path fill="#010202" d="M9.067,117.7c0-1.29,1.17-2.19,2.055-2.565v-0.15c-1.035-0.54-1.815-1.11-1.815-2.55
				c0-1.515,1.185-2.64,3-2.64c1.845,0,3.045,0.9,3.045,2.49c0,1.26-0.915,2.085-1.86,2.52v0.15c1.215,0.555,2.235,1.14,2.235,2.7
				c0,1.725-1.2,2.91-3.375,2.91C10.207,120.564,9.067,119.425,9.067,117.7z M14.302,117.835c0-1.44-0.84-1.8-2.295-2.43
				c-0.735,0.36-1.635,1.2-1.635,2.25c0,1.17,0.645,1.86,1.95,1.86C13.687,119.515,14.302,118.854,14.302,117.835z M14.032,112.33
				c0-0.93-0.57-1.5-1.725-1.5c-1.005,0-1.635,0.6-1.635,1.56c0,1.095,0.825,1.665,1.89,2.175
				C13.417,114.1,14.032,113.35,14.032,112.33z"/>
		</g>
	</g>
</g>
<g>
	<line fill="none" stroke="#B3B2B1" x1="0" y1="124.455" x2="459.247" y2="124.455"/>
	<line fill="none" stroke="#B3B2B1" x1="0" y1="166.851" x2="459.247" y2="166.851"/>
	<line fill="none" stroke="#B3B2B1" x1="0" y1="209.988" x2="459.247" y2="209.988"/>
	<line fill="none" stroke="#B3B2B1" x1="0" y1="253.655" x2="459.247" y2="253.655"/>
	<line fill="none" stroke="#B3B2B1" x1="0" y1="296.898" x2="459.247" y2="296.898"/>
	<line fill="none" stroke="#B3B2B1" x1="0.247" y1="340.752" x2="459.494" y2="340.752"/>
	<line fill="none" stroke="#B3B2B1" x1="0" y1="383.747" x2="459.247" y2="383.747"/>
</g>
<g>
	<line fill="none" stroke="#000000" stroke-width="0.5" x1="460.247" y1="408.705" x2="0.266" y2="408.705"/>
</g>
<g>
	<path fill="#010202" d="M1.112,419.15v-0.252c0-2.986,1.667-4.186,3.646-4.186c0.875,0,1.475,0.191,1.871,0.396v1.031
		c-0.384-0.216-0.996-0.443-1.871-0.443c-1.739,0-2.458,1.223-2.458,3.13v0.264c0,2.087,0.576,3.311,2.351,3.311
		c0.408,0,0.959-0.096,1.283-0.252c0,0-0.084-0.324-0.084-0.779v-0.636c0-0.432,0.072-0.899,0.072-0.899H4.35v-0.912h2.567v3.851
		c-0.576,0.336-1.463,0.539-2.327,0.539C2.575,423.312,1.112,422.125,1.112,419.15z"/>
	<path fill="#010202" d="M8.588,420.529v-5.661h1.115v5.589c0,1.56,0.708,1.979,1.703,1.979c0.923,0,1.619-0.468,1.619-1.991v-5.577
		h1.031v5.589c0,1.848-0.912,2.867-2.699,2.867C9.475,423.324,8.588,422.292,8.588,420.529z"/>
	<path fill="#010202" d="M17.491,414.868h1.259l2.542,8.3h-1.199l-0.348-1.151c-0.096-0.336-0.192-0.768-0.251-1.104h-2.878
		c-0.072,0.324-0.168,0.744-0.264,1.092l-0.348,1.163h-1.08L17.491,414.868z M16.867,420.05h2.387
		c-0.12-0.276-0.252-0.647-0.324-0.947l-0.384-1.367c-0.228-0.804-0.42-1.932-0.42-1.932h-0.12c0,0-0.168,1.128-0.408,1.932
		l-0.396,1.379C17.119,419.414,16.975,419.773,16.867,420.05z"/>
	<path fill="#010202" d="M22.363,414.868h2.327c1.703,0,2.59,0.876,2.59,2.375c0,1.151-0.563,1.763-1.499,2.075v0.12
		c0,0,0.348,0.455,0.636,1.079l1.259,2.65h-1.175l-1.619-3.466h-1.463c0,0,0.072,0.623,0.072,1.031v2.435h-1.127V414.868z
		 M24.69,418.851c0.971,0,1.451-0.552,1.451-1.571c0-0.995-0.408-1.499-1.451-1.499h-1.284c0,0,0.072,0.588,0.072,0.947v1.163
		c0,0.372-0.072,0.96-0.072,0.96H24.69z"/>
	<path fill="#010202" d="M29.011,414.868h1.991c2.482,0,3.682,1.271,3.682,3.851v0.275c0,2.795-1.187,4.174-3.61,4.174h-2.063
		V414.868z M31.098,422.269c1.535,0,2.411-0.744,2.411-3.13v-0.301c0-2.578-1.02-3.058-2.639-3.058h-0.815
		c0,0,0.072,0.623,0.072,1.031v4.426c0,0.396-0.072,1.031-0.072,1.031H31.098z"/>
	<path fill="#010202" d="M36.247,414.868h1.115v8.3h-1.115V414.868z"/>
	<path fill="#010202" d="M41.142,414.868h1.259l2.542,8.3h-1.199l-0.348-1.151c-0.096-0.336-0.192-0.768-0.252-1.104h-2.878
		c-0.072,0.324-0.168,0.744-0.264,1.092l-0.348,1.163h-1.079L41.142,414.868z M40.519,420.05h2.387
		c-0.12-0.276-0.252-0.647-0.324-0.947l-0.384-1.367c-0.228-0.804-0.419-1.932-0.419-1.932h-0.12c0,0-0.168,1.128-0.408,1.932
		l-0.396,1.379C40.77,419.414,40.626,419.773,40.519,420.05z"/>
	<path fill="#010202" d="M46.015,414.868h1.295l2.099,4.03c0.408,0.84,1.043,2.494,1.043,2.494h0.12c0,0-0.096-1.463-0.096-2.171
		v-4.354h0.996v8.3h-1.151l-2.231-4.39c-0.396-0.827-1.043-2.435-1.043-2.435h-0.132c0,0,0.096,1.392,0.096,2.087v4.737h-0.995
		V414.868z"/>
	<path fill="#010202" d="M55.351,419.15v-0.252c0-2.986,1.667-4.186,3.646-4.186c0.875,0,1.475,0.191,1.871,0.396v1.031
		c-0.384-0.216-0.996-0.443-1.871-0.443c-1.739,0-2.458,1.223-2.458,3.13v0.264c0,2.087,0.576,3.311,2.351,3.311
		c0.408,0,0.959-0.096,1.283-0.252c0,0-0.084-0.324-0.084-0.779v-0.636c0-0.432,0.072-0.899,0.072-0.899h-1.571v-0.912h2.566v3.851
		c-0.576,0.336-1.463,0.539-2.327,0.539C56.814,423.312,55.351,422.125,55.351,419.15z"/>
	<path fill="#010202" d="M62.863,414.868h2.327c1.703,0,2.59,0.876,2.59,2.375c0,1.151-0.563,1.763-1.499,2.075v0.12
		c0,0,0.348,0.455,0.636,1.079l1.259,2.65H67l-1.619-3.466h-1.463c0,0,0.072,0.623,0.072,1.031v2.435h-1.127V414.868z
		 M65.189,418.851c0.972,0,1.451-0.552,1.451-1.571c0-0.995-0.408-1.499-1.451-1.499h-1.283c0,0,0.072,0.588,0.072,0.947v1.163
		c0,0.372-0.072,0.96-0.072,0.96H65.189z"/>
	<path fill="#010202" d="M71.31,414.868h1.259l2.542,8.3h-1.199l-0.348-1.151c-0.096-0.336-0.192-0.768-0.252-1.104h-2.878
		c-0.072,0.324-0.168,0.744-0.264,1.092l-0.348,1.163h-1.079L71.31,414.868z M70.686,420.05h2.387
		c-0.12-0.276-0.252-0.647-0.324-0.947l-0.384-1.367c-0.228-0.804-0.419-1.932-0.419-1.932h-0.12c0,0-0.168,1.128-0.408,1.932
		l-0.396,1.379C70.938,419.414,70.794,419.773,70.686,420.05z"/>
	<path fill="#010202" d="M76.183,414.868h2.314c1.835,0,2.531,1.08,2.531,2.495c0,1.691-1.007,2.566-2.447,2.566h-1.343
		c0,0,0.072,0.636,0.072,1.031v2.207h-1.127V414.868z M78.389,419.042c0.972,0,1.5-0.479,1.5-1.595c0-1.235-0.516-1.667-1.487-1.667
		h-1.175c0,0,0.072,0.611,0.072,0.983v1.307c0,0.372-0.072,0.972-0.072,0.972H78.389z"/>
	<path fill="#010202" d="M82.314,414.868h1.127v2.423c0,0.456-0.072,1.128-0.072,1.128h3.418c0,0-0.072-0.672-0.072-1.128v-2.423
		h1.127v8.3h-1.127v-2.698c0-0.444,0.072-1.128,0.072-1.128H83.37c0,0,0.072,0.684,0.072,1.128v2.698h-1.127V414.868z"/>
	<path fill="#010202" d="M89.826,414.868h1.115v8.3h-1.115V414.868z"/>
	<path fill="#010202" d="M92.515,419.15v-0.3c0-3.083,1.619-4.138,3.454-4.138c0.671,0,1.295,0.144,1.727,0.359v0.996
		c-0.564-0.217-1.116-0.372-1.763-0.372c-1.211,0-2.231,0.695-2.231,3.058v0.324c0,2.255,0.696,3.25,2.327,3.25
		c0.768,0,1.343-0.239,1.763-0.539v0.995c-0.492,0.324-1.139,0.527-2.003,0.527C93.786,423.312,92.515,421.908,92.515,419.15z"/>
</g>
<g>
	<path fill="#010202" d="M397.158,422.856v-0.936c0.587,0.252,1.271,0.407,2.015,0.407c1.031,0,1.487-0.42,1.487-1.283
		c0-0.804-0.384-1.139-1.224-1.499l-0.695-0.3c-0.983-0.443-1.56-1.14-1.56-2.291c0-1.247,0.756-2.242,2.459-2.242
		c0.779,0,1.415,0.216,1.799,0.455v0.948c-0.443-0.24-1.031-0.433-1.775-0.433c-0.899,0-1.403,0.396-1.403,1.188
		c0,0.708,0.324,1.067,1.08,1.403l0.707,0.3c0.983,0.432,1.764,0.96,1.764,2.339c0,1.463-0.792,2.398-2.591,2.398
		C398.381,423.312,397.674,423.108,397.158,422.856z"/>
	<path fill="#010202" d="M402.81,419.174v-0.312c0-2.759,1.296-4.149,3.238-4.149c1.919,0,3.215,1.319,3.215,4.138v0.312
		c0,2.759-1.319,4.149-3.251,4.149C404.081,423.312,402.81,422.005,402.81,419.174z M408.051,419.246v-0.324
		c0-2.17-0.552-3.273-2.051-3.273c-1.355-0.024-2.003,1.091-2.003,3.13v0.324c0,2.183,0.552,3.286,2.039,3.286
		C407.415,422.389,408.051,421.297,408.051,419.246z"/>
	<path fill="#010202" d="M410.646,420.529v-5.661h1.115v5.589c0,1.56,0.708,1.979,1.703,1.979c0.924,0,1.619-0.468,1.619-1.991
		v-5.577h1.031v5.589c0,1.848-0.911,2.867-2.698,2.867C411.533,423.324,410.646,422.292,410.646,420.529z"/>
	<path fill="#010202" d="M417.93,414.868h2.326c1.703,0,2.591,0.876,2.591,2.375c0,1.151-0.563,1.763-1.499,2.075v0.12
		c0,0,0.348,0.455,0.636,1.079l1.259,2.65h-1.175l-1.619-3.466h-1.464c0,0,0.072,0.623,0.072,1.031v2.435h-1.127V414.868z
		 M420.256,418.851c0.972,0,1.451-0.552,1.451-1.571c0-0.995-0.407-1.499-1.451-1.499h-1.283c0,0,0.072,0.588,0.072,0.947v1.163
		c0,0.372-0.072,0.96-0.072,0.96H420.256z"/>
	<path fill="#010202" d="M424.169,419.15v-0.3c0-3.083,1.619-4.138,3.454-4.138c0.672,0,1.296,0.144,1.728,0.359v0.996
		c-0.563-0.217-1.115-0.372-1.763-0.372c-1.212,0-2.231,0.695-2.231,3.058v0.324c0,2.255,0.696,3.25,2.327,3.25
		c0.768,0,1.343-0.239,1.763-0.539v0.995c-0.491,0.324-1.14,0.527-2.003,0.527C425.44,423.312,424.169,421.908,424.169,419.15z"/>
	<path fill="#010202" d="M430.829,414.868h4.438v0.924h-3.395c0,0,0.072,0.576,0.072,0.924v0.755c0,0.372-0.072,0.936-0.072,0.936
		h2.627v0.912h-2.627c0,0,0.072,0.575,0.072,0.936v1.055c0,0.372-0.072,0.936-0.072,0.936h3.419v0.924h-4.462V414.868z"/>
	<path fill="#010202" d="M436.457,422.856v-0.936c0.588,0.252,1.271,0.407,2.015,0.407c1.032,0,1.487-0.42,1.487-1.283
		c0-0.804-0.384-1.139-1.223-1.499l-0.696-0.3c-0.983-0.443-1.559-1.14-1.559-2.291c0-1.247,0.755-2.242,2.458-2.242
		c0.78,0,1.416,0.216,1.8,0.455v0.948c-0.444-0.24-1.032-0.433-1.775-0.433c-0.899,0-1.403,0.396-1.403,1.188
		c0,0.708,0.324,1.067,1.079,1.403l0.708,0.3c0.983,0.432,1.763,0.96,1.763,2.339c0,1.463-0.791,2.398-2.591,2.398
		C437.681,423.312,436.973,423.108,436.457,422.856z"/>
	<path fill="#010202" d="M442.685,417.986h1.235v1.271h-1.235V417.986z M442.685,421.896h1.235v1.271h-1.235V421.896z"/>
	<path fill="#010202" d="M448.325,414.868h2.326c1.703,0,2.351,0.756,2.351,2.063c0,0.936-0.312,1.571-1.415,1.822v0.12
		c1.115,0.108,1.703,0.768,1.703,2.016c0,1.271-0.768,2.278-2.482,2.278h-2.482V414.868z M450.447,418.49
		c0.84,0,1.439-0.359,1.439-1.391c0-0.96-0.396-1.344-1.379-1.344h-1.164c0,0,0.072,0.576,0.072,0.947v0.828
		c0,0.372-0.072,0.959-0.072,0.959H450.447z M450.688,422.28c0.936,0,1.451-0.491,1.451-1.511c0-1.067-0.479-1.499-1.511-1.499
		h-1.284c0,0,0.072,0.611,0.072,0.983v1.079c0,0.359-0.072,0.947-0.072,0.947H450.688z"/>
	<path fill="#010202" d="M454.696,414.868h2.315c1.835,0,2.53,1.08,2.53,2.495c0,1.691-1.008,2.566-2.446,2.566h-1.344
		c0,0,0.072,0.636,0.072,1.031v2.207h-1.128V414.868z M456.903,419.042c0.972,0,1.499-0.479,1.499-1.595
		c0-1.235-0.516-1.667-1.487-1.667h-1.175c0,0,0.071,0.611,0.071,0.983v1.307c0,0.372-0.071,0.972-0.071,0.972H456.903z"/>
</g>
<rect x="0.247" fill="#63C2D9" width="70.5" height="4"/>
<g>
	<g>
		<path fill="#00588A" d="M0.647,19.508c0-5.421,3.621-7.282,7.302-7.282c1.8,0,3.5,0.28,4.361,0.62l0.12,4.121h-2.42l-0.62-1.9
			c-0.4-0.18-0.86-0.32-1.541-0.32c-2.141,0-2.9,1.601-2.9,4.361c0,3.841,0.86,4.941,3.021,4.941c0.7,0,1.24-0.18,1.6-0.38
			l0.62-1.98h2.401l-0.18,4.101c-1,0.44-2.581,0.78-4.821,0.78C3.608,26.57,0.647,24.569,0.647,19.508z"/>
		<path fill="#00588A" d="M13.587,21.068c0-3.681,2.44-5.641,5.521-5.641c3.581,0,5.541,2,5.541,5.501
			c0,3.661-2.46,5.662-5.521,5.662C15.567,26.59,13.587,24.449,13.587,21.068z M20.768,21.068c0-2.76-0.68-3.46-1.68-3.46
			c-0.98,0-1.641,0.62-1.641,3.32c0,2.761,0.68,3.461,1.701,3.461C20.128,24.389,20.768,23.689,20.768,21.068z"/>
		<path fill="#00588A" d="M25.227,24.509l1.16-0.28v-6.141l-1.22-0.32v-1.86l4.421-0.46l0.3,0.14v1.14h0.12
			c1.021-0.78,2.041-1.3,3.521-1.3c1.64,0,2.78,0.74,2.78,2.641v6.161l1.061,0.28v1.82h-5.582v-1.82l0.86-0.22v-4.941
			c0-0.86-0.4-1.14-1.26-1.14c-0.52,0-0.92,0.12-1.34,0.26v5.821l0.84,0.22v1.82h-5.661V24.509z"/>
		<path fill="#00588A" d="M38.146,25.93l-0.18-2.921h2.281l0.4,1.18c0.24,0.14,0.76,0.32,1.38,0.32c0.88,0,1.42-0.34,1.42-0.94
			s-0.34-0.82-1.28-1.04l-1.18-0.28c-2-0.48-3.041-1.36-3.041-3.261c0-2.08,1.46-3.581,4.781-3.581c1.32,0,2.661,0.22,3.541,0.58
			v2.781h-2.221l-0.24-1.061c-0.26-0.14-0.62-0.26-1.22-0.26c-0.76,0-1.38,0.24-1.38,0.84c0,0.56,0.38,0.78,1.46,1.04l1.28,0.3
			c2.161,0.5,3,1.561,3,3.181c0,2.261-1.48,3.781-5.041,3.781C40.687,26.59,39.247,26.37,38.146,25.93z"/>
		<path fill="#00588A" d="M48.387,23.609v-5.561l-1.12-0.34v-1.84l4.481-0.42l0.3,0.16v6.941c0,0.88,0.3,1.26,1.2,1.26
			c0.68,0,1.061-0.16,1.42-0.3v-5.461l-1.06-0.34v-1.84l4.401-0.42l0.32,0.16v8.302l1.16,0.32v1.82l-4.361,0.48l-0.32-0.14v-1.16
			h-0.12c-0.72,0.72-1.72,1.34-3.221,1.34C49.267,26.57,48.387,25.469,48.387,23.609z"/>
		<path fill="#00588A" d="M60.046,24.509l1.16-0.28v-6.141l-1.22-0.32v-1.86l4.421-0.46l0.3,0.14v1.1h0.12
			c0.94-0.74,1.9-1.26,3.401-1.26c1.12,0,2.021,0.42,2.44,1.36h0.1c0.88-0.76,2.061-1.36,3.541-1.36c1.561,0,2.761,0.8,2.761,2.681
			v6.121l1.06,0.28v1.82h-5.521v-1.82l0.8-0.22v-4.881c0-0.92-0.34-1.22-1.2-1.22c-0.46,0-0.86,0.12-1.28,0.28
			c0.02,0.08,0.04,0.3,0.04,0.48v5.341l0.82,0.22v1.82h-5.281v-1.82l0.8-0.22v-4.881c0-0.92-0.36-1.22-1.16-1.22
			c-0.56,0-0.86,0.12-1.28,0.28v5.821l0.82,0.22v1.82h-5.641V24.509z"/>
		<path fill="#00588A" d="M78.646,28.55l1.14-0.26V18.088l-1.2-0.32v-1.86l4.401-0.46l0.32,0.14v1.04h0.12
			c0.6-0.56,1.641-1.22,3.081-1.22c1.92,0,3.861,1.16,3.861,5.161c0,4.381-2.36,6.021-5.441,6.021c-0.78,0-1.101-0.04-1.48-0.12
			v1.84l1.32,0.24v1.78h-6.121V28.55z M86.528,21.028c0-2.26-0.58-3-1.72-3c-0.6,0-1.04,0.14-1.36,0.3v5.721
			c0.26,0.18,0.58,0.36,1.22,0.36C85.828,24.409,86.528,23.769,86.528,21.028z"/>
		<path fill="#00588A" d="M92.106,23.589v-5.761h-1.14v-1.66l1.46-0.54l0.46-2.48h2.88v2.5h2.161v2.18h-2.161v5.161
			c0,0.94,0.42,1.22,1.3,1.22c0.34,0,0.7-0.06,0.98-0.14v1.9c-0.48,0.3-1.4,0.58-2.581,0.58
			C93.326,26.55,92.106,25.85,92.106,23.589z"/>
		<path fill="#00588A" d="M98.766,24.509l1.16-0.28v-6.141l-1.26-0.32v-1.86l4.581-0.46l0.34,0.14v8.642l1.08,0.28v1.82h-5.901
			V24.509z M99.625,12.987c0-1.1,0.92-1.78,2.021-1.78c1.12,0,2.021,0.68,2.021,1.78c0,1.12-0.9,1.8-2.021,1.8
			C100.546,14.787,99.625,14.107,99.625,12.987z"/>
		<path fill="#00588A" d="M105.226,21.068c0-3.681,2.441-5.641,5.521-5.641c3.581,0,5.541,2,5.541,5.501
			c0,3.661-2.46,5.662-5.521,5.662C107.206,26.59,105.226,24.449,105.226,21.068z M112.407,21.068c0-2.76-0.68-3.46-1.68-3.46
			c-0.98,0-1.641,0.62-1.641,3.32c0,2.761,0.68,3.461,1.701,3.461C111.767,24.389,112.407,23.689,112.407,21.068z"/>
		<path fill="#00588A" d="M116.866,24.509l1.16-0.28v-6.141l-1.22-0.32v-1.86l4.421-0.46l0.3,0.14v1.14h0.12
			c1.021-0.78,2.041-1.3,3.521-1.3c1.64,0,2.78,0.74,2.78,2.641v6.161l1.061,0.28v1.82h-5.582v-1.82l0.86-0.22v-4.941
			c0-0.86-0.4-1.14-1.26-1.14c-0.52,0-0.92,0.12-1.34,0.26v5.821l0.84,0.22v1.82h-5.661V24.509z"/>
		<path fill="#00588A" d="M133.785,25.629V14.127l-1.14-0.32v-1.94l4.421-0.46l0.34,0.16v4.961h0.14c0.62-0.52,1.52-1.12,2.96-1.12
			c1.92,0,3.861,1.16,3.861,5.161c0,4.381-2.38,6.021-5.821,6.021C136.466,26.59,134.746,26.149,133.785,25.629z M140.527,21.028
			c0-2.26-0.58-3-1.72-3c-0.601,0-1.041,0.14-1.36,0.3v5.721c0.26,0.18,0.56,0.36,1.2,0.36
			C139.827,24.409,140.527,23.769,140.527,21.028z"/>
		<path fill="#00588A" d="M146.025,30.07v-2.3c0.44,0.1,0.76,0.14,1.08,0.14c0.84,0,1.46-0.22,1.74-0.96l0.3-0.78l-3.561-8.422
			l-0.92-0.28v-1.82h5.741v1.82l-0.98,0.24l1.781,4.801h0.08l1.561-4.801l-0.98-0.24v-1.82h4.601v1.82l-0.86,0.28l-3.701,9.702
			c-0.74,1.96-1.721,2.941-3.881,2.941C147.326,30.391,146.445,30.25,146.025,30.07z"/>
		<path fill="#00588A" d="M160.385,24.509l1.16-0.28v-6.401h-1.18v-1.66l1.18-0.46v-0.94c0-2.581,1.9-3.421,3.921-3.421
			c1.14,0,1.9,0.22,2.32,0.38v2.18c-0.36-0.08-0.7-0.12-1.18-0.12c-0.94,0-1.4,0.26-1.4,1.34v0.521h1.96v2.18h-1.96v6.401l1.38,0.28
			v1.82h-6.201V24.509z"/>
		<path fill="#00588A" d="M168.665,23.609v-5.561l-1.12-0.34v-1.84l4.481-0.42l0.3,0.16v6.941c0,0.88,0.3,1.26,1.2,1.26
			c0.68,0,1.061-0.16,1.42-0.3v-5.461l-1.06-0.34v-1.84l4.401-0.42l0.32,0.16v8.302l1.16,0.32v1.82l-4.361,0.48l-0.32-0.14v-1.16
			h-0.12c-0.72,0.72-1.72,1.34-3.221,1.34C169.545,26.57,168.665,25.469,168.665,23.609z"/>
		<path fill="#00588A" d="M180.385,20.968c0-3.5,2.16-5.541,5.421-5.541c3.281,0,4.841,1.64,4.841,6.121h-6.441
			c0.2,1.861,1.18,2.541,2.88,2.541c1.4,0,2.3-0.26,3.061-0.5v1.94c-0.76,0.52-2.021,1.061-4.061,1.061
			C182.345,26.59,180.385,24.569,180.385,20.968z M187.106,19.728c0-1.66-0.58-2.16-1.36-2.16c-0.82,0-1.44,0.5-1.56,2.28
			L187.106,19.728z"/>
		<path fill="#00588A" d="M191.285,24.509l1.18-0.28V13.987l-1.28-0.34v-1.84l4.621-0.46l0.32,0.14v12.743l1.14,0.28v1.82h-5.981
			V24.509z"/>
	</g>
</g>
<g>
	<g>
		<g>
			<path fill="#010202" d="M17.143,400.742h2.01c0,0-0.075-0.779-0.075-1.274v-6.704c0,0-0.45,0.18-1.14,0.27l-0.855,0.119v-0.81
				l2.775-1.124h0.63v8.249c0,0.495-0.09,1.274-0.09,1.274h2.01v0.961h-5.265V400.742z"/>
			<path fill="#010202" d="M24.643,401.418v-0.975c0.375,0.119,1.095,0.284,1.83,0.284c1.635,0,2.76-0.659,2.865-3.795h-0.15
				c-0.54,0.466-1.14,0.854-2.175,0.854c-1.725,0-2.73-1.154-2.73-3.135c0-2.024,1.02-3.524,3.105-3.524
				c2.145,0,3.39,1.53,3.39,4.755v0.42c0,4.245-1.68,5.58-4.05,5.58C25.813,401.883,25.078,401.658,24.643,401.418z M29.323,396.107
				v-0.42c0-2.129-0.51-3.494-1.905-3.494c-1.215,0-1.74,0.72-1.74,2.354c0,1.665,0.675,2.22,1.755,2.22
				C28.288,396.768,28.798,396.498,29.323,396.107z"/>
			<path fill="#010202" d="M32.383,397.128v-0.42c0-4.215,1.92-5.58,4.125-5.58c0.84,0,1.41,0.165,1.845,0.405v0.975
				c-0.36-0.119-0.915-0.225-1.605-0.225c-1.56,0-2.7,0.645-2.925,3.795h0.15c0.54-0.45,1.14-0.855,2.175-0.855
				c1.725,0,2.73,1.17,2.73,3.135c0,2.025-1.02,3.525-3.105,3.525C33.598,401.883,32.383,400.353,32.383,397.128z M37.482,398.478
				c0-1.68-0.675-2.22-1.755-2.22c-0.855,0-1.365,0.255-1.89,0.645v0.42c0,2.131,0.525,3.496,1.92,3.496
				C37.002,400.818,37.482,400.098,37.482,398.478z"/>
			<path fill="#010202" d="M40.602,401.207v-1.02c0.57,0.315,1.38,0.525,2.22,0.525c1.365,0,2.205-0.705,2.205-2.176
				c0-1.545-0.765-2.219-2.235-2.219c-0.585,0-1.035,0.104-1.44,0.239h-0.33l0.345-5.234h4.755v1.125h-3.75
				c0,0,0.045,0.45,0.015,0.854l-0.06,0.99c-0.045,0.675-0.255,1.26-0.255,1.26h0.15c0.36-0.165,0.735-0.27,1.17-0.27
				c1.965,0,3.135,1.14,3.135,3.18c0,1.994-1.275,3.404-3.48,3.404C41.907,401.867,41.157,401.582,40.602,401.207z"/>
		</g>
	</g>
</g>
<g>
	<g>
		<g>
			<path fill="#010202" d="M229.864,400.697l2.25-2.369c1.44-1.561,2.115-2.596,2.115-4.035c0-1.41-0.585-1.995-1.994-1.995
				c-0.781,0-1.516,0.165-2.146,0.405v-0.99c0.585-0.3,1.425-0.585,2.46-0.585c1.949,0,3.135,1.08,3.135,3.12
				c0,1.529-0.824,2.925-2.52,4.619l-0.271,0.271c-0.765,0.765-1.59,1.365-1.59,1.365v0.075h4.604v1.125h-6.044V400.697z"/>
			<path fill="#010202" d="M237.693,397.098v-1.064c0-3.48,1.516-4.905,3.391-4.905c1.92,0,3.359,1.38,3.359,4.845v1.064
				c0,3.451-1.439,4.846-3.359,4.846C239.104,401.883,237.693,400.503,237.693,397.098z M243.019,397.098v-1.095
				c0-2.64-0.569-3.765-1.935-3.765c-1.35,0-1.95,1.095-1.95,3.705v1.094c0,2.625,0.585,3.735,1.95,3.735
				C242.434,400.772,243.019,399.768,243.019,397.098z"/>
			<path fill="#010202" d="M245.719,397.098v-1.064c0-3.48,1.516-4.905,3.39-4.905c1.92,0,3.36,1.38,3.36,4.845v1.064
				c0,3.451-1.44,4.846-3.36,4.846C247.129,401.883,245.719,400.503,245.719,397.098z M251.043,397.098v-1.095
				c0-2.64-0.569-3.765-1.935-3.765c-1.35,0-1.95,1.095-1.95,3.705v1.094c0,2.625,0.586,3.735,1.95,3.735
				C250.459,400.772,251.043,399.768,251.043,397.098z"/>
			<path fill="#010202" d="M253.743,397.098v-1.064c0-3.48,1.515-4.905,3.39-4.905c1.92,0,3.359,1.38,3.359,4.845v1.064
				c0,3.451-1.439,4.846-3.359,4.846C255.152,401.883,253.743,400.503,253.743,397.098z M259.068,397.098v-1.095
				c0-2.64-0.57-3.765-1.936-3.765c-1.35,0-1.949,1.095-1.949,3.705v1.094c0,2.625,0.584,3.735,1.949,3.735
				C258.482,400.772,259.068,399.768,259.068,397.098z"/>
		</g>
	</g>
</g>
<g>
	<g>
		<g>
			<path fill="#010202" d="M429.029,400.697l2.25-2.369c1.44-1.561,2.115-2.596,2.115-4.035c0-1.41-0.585-1.995-1.994-1.995
				c-0.781,0-1.516,0.165-2.146,0.405v-0.99c0.585-0.3,1.425-0.585,2.46-0.585c1.949,0,3.135,1.08,3.135,3.12
				c0,1.529-0.824,2.925-2.52,4.619l-0.271,0.271c-0.765,0.765-1.59,1.365-1.59,1.365v0.075h4.604v1.125h-6.045V400.697z"/>
			<path fill="#010202" d="M436.859,397.098v-1.064c0-3.48,1.516-4.905,3.391-4.905c1.92,0,3.359,1.38,3.359,4.845v1.064
				c0,3.451-1.439,4.846-3.359,4.846C438.27,401.883,436.859,400.503,436.859,397.098z M442.185,397.098v-1.095
				c0-2.64-0.569-3.765-1.935-3.765c-1.35,0-1.95,1.095-1.95,3.705v1.094c0,2.625,0.585,3.735,1.95,3.735
				C441.6,400.772,442.185,399.768,442.185,397.098z"/>
			<path fill="#010202" d="M445.154,401.252v-1.004c0.646,0.27,1.455,0.465,2.34,0.465c1.455,0,2.235-0.676,2.235-1.98
				c0-1.215-0.675-1.904-2.159-1.904h-0.886v-1.11h0.646c1.319,0,2.084-0.765,2.084-1.8c0-1.23-0.734-1.635-2.039-1.635
				c-0.676,0-1.305,0.105-1.815,0.285v-0.975c0.63-0.301,1.365-0.466,2.235-0.466c1.77,0,3.015,0.841,3.015,2.476
				c0,1.274-0.735,2.234-2.16,2.52v0.15c1.545,0.164,2.55,0.854,2.55,2.504c0,1.86-1.305,3.09-3.375,3.09
				C446.715,401.867,445.77,401.568,445.154,401.252z"/>
			<path fill="#010202" d="M453.27,401.207v-1.02c0.57,0.315,1.379,0.525,2.22,0.525c1.364,0,2.204-0.705,2.204-2.176
				c0-1.545-0.764-2.219-2.234-2.219c-0.585,0-1.035,0.104-1.439,0.239h-0.33l0.345-5.234h4.755v1.125h-3.75
				c0,0,0.045,0.45,0.016,0.854l-0.061,0.99c-0.045,0.675-0.255,1.26-0.255,1.26h0.149c0.36-0.165,0.735-0.27,1.17-0.27
				c1.965,0,3.135,1.14,3.135,3.18c0,1.994-1.274,3.404-3.479,3.404C454.574,401.867,453.824,401.582,453.27,401.207z"/>
		</g>
	</g>
</g>
<g>
	<g>
		<g>
			<path fill="#010202" d="M0.997,374.598v-1.064c0-3.48,1.515-4.905,3.39-4.905c1.92,0,3.36,1.38,3.36,4.845v1.064
				c0,3.451-1.44,4.846-3.36,4.846C2.407,379.383,0.997,378.003,0.997,374.598z M6.322,374.598v-1.095
				c0-2.64-0.57-3.765-1.935-3.765c-1.35,0-1.95,1.095-1.95,3.705v1.094c0,2.625,0.585,3.735,1.95,3.735
				C5.737,378.272,6.322,377.268,6.322,374.598z"/>
		</g>
	</g>
</g>
<path fill="#00588A" d="M458.944,317.439v65.713l-430.735,0.689v-21.039c11.714,0,39.476-1.695,48.15-1.695
	s26.895-2.969,31.231-2.969s14.748-0.847,19.953-0.423c5.205,0.423,20.821-2.968,28.629-3.815
	c7.808-0.849,19.953-3.816,26.026-2.544s23.424,0.849,28.629,1.272c5.205,0.423,12.146-2.545,19.953-2.545s18.22,1.272,25.159-1.271
	c6.94-2.543,16.482-8.479,19.953-8.902s10.409-2.969,14.748-2.969s9.544,0.002,13.881-2.119c4.338-2.12,13.882-7.631,19.087-6.783
	s13.012,0,21.688-1.271s34.702-4.664,42.51-5.088c7.809-0.424,35.569-1.695,44.245-1.695S458.944,317.439,458.944,317.439z"/>
<g>
</g>
<g>
</g>
<g>
</g>
<g>
</g>
<g>
</g>
<g>
</g>
</svg>
